solid ChrsistmasStarPiece_thin_v4_small
facet normal -0.947216708274565 0.299215557744783 0.115111066231601
outer loop
vertex 23.7171333509489 54.3842191893923 -3.93260635591952e-18
vertex 17.1517056748613 33.6002638408446 -0.0
vertex 23.9628211566082 24.3852252478926 80.0
endloop
endfacet
facet normal 0.590439922251156 -0.798830483045729 0.115111066231604
outer loop
vertex 23.9628211566082 24.3852252478926 80.0
vertex 6.52862054427294 -0.0288823337658758 0.0
vertex 24.0566655477489 12.9266291905417 0.0
endloop
endfacet
facet normal 0.942188906448868 0.314689540651911 0.1151110662316
outer loop
vertex 23.9628211566082 24.3852252478926 80.0
vertex 41.7945529891224 0.259941003902582 0.0
vertex 34.8895931162349 20.9335756542053 0.0
endloop
endfacet
facet normal -0.577276966182801 -0.808393930423655 0.115111066231599
outer loop
vertex 23.9628211566082 24.3852252478926 80.0
vertex 24.0566655477489 12.9266291905417 0.0
vertex 41.7945529891224 0.259941003902582 0.0
endloop
endfacet
facet normal -0.00813515424267459 0.993319315072687 0.115111066231601
outer loop
vertex 23.9628211566082 24.3852252478926 80.0
vertex 17.1517056748613 33.6002638408446 -0.0
vertex -4.6438392210136 33.4217612014208 0.0
endloop
endfacet
facet normal 0.942188906448869 0.314689540651907 0.115111066231598
outer loop
vertex 23.7171333509489 54.3842191893923 -3.93260635591952e-18
vertex 23.9628211566082 24.3852252478926 80.0
vertex 30.6220932238361 33.71058453909 0.0
endloop
endfacet
facet normal 0.590439922251187 -0.798830483045706 0.115111066231602
outer loop
vertex 23.9628211566082 24.3852252478926 80.0
vertex 34.8895931162349 20.9335756542053 0.0
vertex 52.4176381197112 33.8890871785141 -3.93260635591856e-18
endloop
endfacet
facet normal -0.94721670827457 0.299215557744767 0.115111066231601
outer loop
vertex 23.9628211566082 24.3852252478926 80.0
vertex 13.0940482203599 20.7550730147813 0.0
vertex 6.52862054427294 -0.0288823337658758 0.0
endloop
endfacet
facet normal -0.00813515424268925 0.993319315072687 0.1151110662316
outer loop
vertex 23.9628211566082 24.3852252478926 80.0
vertex 52.4176381197112 33.8890871785141 -3.93260635591856e-18
vertex 30.6220932238361 33.71058453909 0.0
endloop
endfacet
facet normal -0.577276966182811 -0.808393930423647 0.115111066231604
outer loop
vertex 23.9628211566082 24.3852252478926 80.0
vertex -4.6438392210136 33.4217612014208 0.0
vertex 13.0940482203599 20.7550730147813 0.0
endloop
endfacet
facet normal 4.20791284030053e-17 4.91430623262585e-17 -1.0
outer loop
vertex 23.7804155760525 46.6573274033052 -9.95349232484299
vertex 11.0191771866438 6.2595007935224 -9.95349232484299
vertex 2.7244268458512 31.0942052983738 -9.95349232484299
endloop
endfacet
facet normal 4.20791284030053e-17 4.91430623262585e-17 -1.0
outer loop
vertex 11.0191771866438 6.2595007935224 -9.95349232484299
vertex 23.7804155760525 46.6573274033052 -9.95349232484299
vertex 37.2016035556496 6.47393141389546 -9.95349232484299
endloop
endfacet
facet normal 4.20791284030053e-17 4.91430623262585e-17 -1.0
outer loop
vertex 37.2016035556496 6.47393141389546 -9.95349232484299
vertex 23.7804155760525 46.6573274033052 -9.95349232484299
vertex 45.0884826188441 31.4411613303661 -9.95349232484298
endloop
endfacet
facet normal 0.807500603373424 -0.255080744783043 -0.53186143796339
outer loop
vertex 37.2016035556496 6.47393141389546 -9.95349232484299
vertex 43.68497776274 18.1552083602229 -5.71242576195699
vertex 41.7945529891224 0.259941003902582 0.0
endloop
endfacet
facet normal 0.807500603373424 -0.255080744783043 -0.53186143796339
outer loop
vertex 43.68497776274 18.1552083602229 -5.71242576195699
vertex 37.2016035556496 6.47393141389546 -9.95349232484299
vertex 45.0884826188441 31.4411613303661 -9.95349232484298
endloop
endfacet
facet normal 0.807500603373424 -0.255080744783043 -0.53186143796339
outer loop
vertex 43.68497776274 18.1552083602229 -5.71242576195699
vertex 45.0884826188441 31.4411613303661 -9.95349232484298
vertex 52.4176381197112 33.8890871785141 -3.93260635591856e-18
endloop
endfacet
facet normal 0.361303987839529 -0.488823042371117 0.794047518488849
outer loop
vertex 52.4176381197112 33.8890871785141 -3.93260635591856e-18
vertex 34.8895931162349 20.9335756542053 0.0
vertex 43.68497776274 18.1552083602229 -5.71242576195699
endloop
endfacet
facet normal 0.576547412140123 0.192565884663459 0.794047518488854
outer loop
vertex 43.68497776274 18.1552083602229 -5.71242576195699
vertex 34.8895931162349 20.9335756542053 0.0
vertex 41.7945529891224 0.259941003902582 0.0
endloop
endfacet
facet normal -0.80321441102439 -0.268272288412884 -0.531861437963364
outer loop
vertex 4.3453492484183 17.8330219887736 -5.71242576195694
vertex 11.0191771866438 6.2595007935224 -9.95349232484299
vertex 6.52862054427294 -0.0288823337658758 0.0
endloop
endfacet
facet normal -0.80321441102439 -0.268272288412884 -0.531861437963364
outer loop
vertex 11.0191771866438 6.2595007935224 -9.95349232484299
vertex 4.3453492484183 17.8330219887736 -5.71242576195694
vertex 2.7244268458512 31.0942052983738 -9.95349232484299
endloop
endfacet
facet normal -0.80321441102439 -0.268272288412884 -0.531861437963364
outer loop
vertex 2.7244268458512 31.0942052983738 -9.95349232484299
vertex 4.3453492484183 17.8330219887736 -5.71242576195694
vertex -4.6438392210136 33.4217612014208 0.0
endloop
endfacet
facet normal -0.353249267384436 -0.494675139332939 0.794047518488847
outer loop
vertex 13.0940482203599 20.7550730147813 0.0
vertex -4.6438392210136 33.4217612014208 0.0
vertex 4.3453492484183 17.8330219887736 -5.71242576195694
endloop
endfacet
facet normal -0.579624041584094 0.183096992873766 0.794047518488853
outer loop
vertex 13.0940482203599 20.7550730147813 0.0
vertex 4.3453492484183 17.8330219887736 -5.71242576195694
vertex 6.52862054427294 -0.0288823337658758 0.0
endloop
endfacet
facet normal 0.0069352049030612 -0.846802995826355 -0.53186143796337
outer loop
vertex 41.7945529891224 0.259941003902582 0.0
vertex 11.0191771866438 6.2595007935224 -9.95349232484299
vertex 37.2016035556496 6.47393141389546 -9.95349232484299
endloop
endfacet
facet normal 0.0069352049030612 -0.846802995826355 -0.53186143796337
outer loop
vertex 11.0191771866438 6.2595007935224 -9.95349232484299
vertex 41.7945529891224 0.259941003902582 0.0
vertex 24.1322045559797 3.70315859870473 -5.71242576195693
endloop
endfacet
facet normal 0.0069352049030612 -0.846802995826355 -0.53186143796337
outer loop
vertex 6.52862054427294 -0.0288823337658758 0.0
vertex 11.0191771866438 6.2595007935224 -9.95349232484299
vertex 24.1322045559797 3.70315859870473 -5.71242576195693
endloop
endfacet
facet normal 0.361303987839513 -0.488823042371135 0.794047518488845
outer loop
vertex 24.1322045559797 3.70315859870473 -5.71242576195693
vertex 24.0566655477489 12.9266291905417 0.0
vertex 6.52862054427294 -0.0288823337658758 0.0
endloop
endfacet
facet normal -0.353249267384424 -0.494675139332935 0.794047518488856
outer loop
vertex 41.7945529891224 0.259941003902582 0.0
vertex 24.0566655477489 12.9266291905417 0.0
vertex 24.1322045559797 3.70315859870473 -5.71242576195693
endloop
endfacet
facet normal -0.503349011169864 0.68100160334748 -0.531861437963387
outer loop
vertex -4.6438392210136 33.4217612014208 0.0
vertex 23.7804155760525 46.6573274033052 -9.95349232484299
vertex 2.7244268458512 31.0942052983738 -9.95349232484299
endloop
endfacet
facet normal -0.503349011169864 0.68100160334748 -0.531861437963387
outer loop
vertex 23.7804155760525 46.6573274033052 -9.95349232484299
vertex -4.6438392210136 33.4217612014208 0.0
vertex 11.669173344629 41.0178075817473 -5.71242576195694
endloop
endfacet
facet normal -0.503349011169864 0.68100160334748 -0.531861437963387
outer loop
vertex 23.7171333509489 54.3842191893923 -3.93260635591952e-18
vertex 23.7804155760525 46.6573274033052 -9.95349232484299
vertex 11.669173344629 41.0178075817473 -5.71242576195694
endloop
endfacet
facet normal -0.579624041584091 0.183096992873775 0.794047518488853
outer loop
vertex 23.7171333509489 54.3842191893923 -3.93260635591952e-18
vertex 11.669173344629 41.0178075817473 -5.71242576195694
vertex 17.1517056748613 33.6002638408446 -0.0
endloop
endfacet
facet normal -0.00497809101112492 0.607835304166829 0.794047518488851
outer loop
vertex 17.1517056748613 33.6002638408446 -0.0
vertex 11.669173344629 41.0178075817473 -5.71242576195694
vertex -4.6438392210136 33.4217612014208 0.0
endloop
endfacet
facet normal 0.492127613917742 0.689154425674786 -0.531861437963391
outer loop
vertex 23.7804155760525 46.6573274033052 -9.95349232484299
vertex 35.9824008712742 41.2169297100149 -5.71242576195694
vertex 45.0884826188441 31.4411613303661 -9.95349232484298
endloop
endfacet
facet normal 0.492127613917742 0.689154425674786 -0.531861437963391
outer loop
vertex 35.9824008712742 41.2169297100149 -5.71242576195694
vertex 23.7804155760525 46.6573274033052 -9.95349232484299
vertex 23.7171333509489 54.3842191893923 -3.93260635591952e-18
endloop
endfacet
facet normal 0.492127613917742 0.689154425674786 -0.531861437963391
outer loop
vertex 52.4176381197112 33.8890871785141 -3.93260635591856e-18
vertex 45.0884826188441 31.4411613303661 -9.95349232484298
vertex 35.9824008712742 41.2169297100149 -5.71242576195694
endloop
endfacet
facet normal -0.00497809101113398 0.607835304166827 0.794047518488853
outer loop
vertex 52.4176381197112 33.8890871785141 -3.93260635591856e-18
vertex 35.9824008712742 41.2169297100149 -5.71242576195694
vertex 30.6220932238361 33.71058453909 0.0
endloop
endfacet
facet normal 0.57654741214012 0.192565884663455 0.794047518488857
outer loop
vertex 35.9824008712742 41.2169297100149 -5.71242576195694
vertex 23.7171333509489 54.3842191893923 -3.93260635591952e-18
vertex 30.6220932238361 33.71058453909 0.0
endloop
endfacet
endsolid ChrsistmasStarPiece_thin_v4_small
